<?xml version="1.0" encoding="utf-8"?>
<!-- Generator: Adobe Illustrator 18.0.0, SVG Export Plug-In . 
SVG Version: 6.00 Build 0)  -->
<!DOCTYPE svg PUBLIC "-//W3C//DTD SVG 1.1//EN" 
"http://www.w3.org/Graphics/SVG/1.1/DTD/svg11.dtd">
<svg width="66" height="66" viewBox="0 0 66 66" fill="none" xmlns="http://www.w3.org/2000/svg">
<path d="M46.75 17.4933L56.6946 7.5487C56.8618 7.5715 57.0271 7.6 57.2 7.6C59.2957 7.6 61 5.8957 61 3.8C61 1.7043 59.2957 0 57.2 0C55.1043 0 53.4 1.7043 53.4 3.8C53.4 4.9894 53.9605 6.0401 54.8193 6.7374L46.351 15.2057C45.6166 13.528 43.9456 12.35 42 12.35H39.778L45.2528 7.55915C47.1576 7.3549 48.65 5.757 48.65 3.8C48.65 1.7043 46.9457 0 44.85 0C42.7543 0 41.05 1.7043 41.05 3.8C41.05 5.1946 41.8129 6.40205 42.9348 7.06325L36.8937 12.35H33.45V7.4651C35.0849 7.04045 36.3 5.5651 36.3 3.8C36.3 1.7043 34.5957 0 32.5 0C30.4043 0 28.7 1.7043 28.7 3.8C28.7 5.5651 29.9151 7.04045 31.55 7.4651V12.35H28.1062L22.0642 7.06325C23.1871 6.40205 23.95 5.1946 23.95 3.8C23.95 1.7043 22.2457 0 20.15 0C18.0543 0 16.35 1.7043 16.35 3.8C16.35 5.757 17.8425 7.3549 19.7472 7.55915L25.222 12.35H23C21.0544 12.35 19.3833 13.528 18.649 15.2057L10.1807 6.7374C11.0395 6.0401 11.6 4.9894 11.6 3.8C11.6 1.7043 9.8957 0 7.8 0C5.7043 0 4 1.7043 4 3.8C4 5.8957 5.7043 7.6 7.8 7.6C7.9729 7.6 8.1382 7.5715 8.3054 7.5487L18.25 17.4933V21.6154L11.5183 20.1191C11.1573 18.3977 9.6278 17.1 7.8 17.1C5.7043 17.1 4 18.8043 4 20.9C4 22.9957 5.7043 24.7 7.8 24.7C9.49575 24.7 10.9179 23.5771 11.4053 22.041L18.25 23.5619V31.35H11.4651C11.0404 29.716 9.56605 28.5 7.8 28.5C5.7043 28.5 4 30.2043 4 32.3C4 34.3957 5.7043 36.1 7.8 36.1C9.56605 36.1 11.0404 34.884 11.4651 33.25H18.25V47.5C18.25 50.1191 20.3808 52.25 23 52.25H27.75V57H29.65V52.25H41.05C41.4338 52.25 41.7815 52.0182 41.9278 51.6638C42.0751 51.3085 41.9934 50.9 41.7216 50.6283L39.15 48.0567V42.75C39.15 42.4982 39.0503 42.256 38.8717 42.0784L35.6588 38.8664C35.6569 38.8645 35.6549 38.8616 35.653 38.8588L34.9082 38.1159C34.5805 37.7872 34.4 37.3511 34.4 36.8875C34.4 35.929 35.179 35.15 36.1366 35.15C36.5935 35.15 37.041 35.3352 37.3649 35.6592L45.1283 43.4216C45.4 43.6943 45.8085 43.7751 46.1638 43.6278C46.5191 43.4805 46.75 43.1338 46.75 42.75V37.4433L49.6 40.2933V57H51.5V39.9C51.5 39.6483 51.4002 39.406 51.2216 39.2283L46.75 34.7567V33.25H53.5349C53.9595 34.884 55.4339 36.1 57.2 36.1C59.2957 36.1 61 34.3957 61 32.3C61 30.2043 59.2957 28.5 57.2 28.5C55.4339 28.5 53.9595 29.716 53.5349 31.35H46.75V23.5619L53.5947 22.041C54.0821 23.5771 55.5042 24.7 57.2 24.7C59.2957 24.7 61 22.9957 61 20.9C61 18.8043 59.2957 17.1 57.2 17.1C55.3722 17.1 53.8427 18.3977 53.4817 20.1201L46.75 21.6163V17.4933ZM57.2 1.9C58.2478 1.9 59.1 2.75215 59.1 3.8C59.1 4.84785 58.2478 5.7 57.2 5.7C56.1521 5.7 55.3 4.84785 55.3 3.8C55.3 2.75215 56.1521 1.9 57.2 1.9ZM44.85 1.9C45.8979 1.9 46.75 2.75215 46.75 3.8C46.75 4.84785 45.8979 5.7 44.85 5.7C43.8022 5.7 42.95 4.84785 42.95 3.8C42.95 2.75215 43.8022 1.9 44.85 1.9ZM30.6 3.8C30.6 2.75215 31.4522 1.9 32.5 1.9C33.5478 1.9 34.4 2.75215 34.4 3.8C34.4 4.84785 33.5478 5.7 32.5 5.7C31.4522 5.7 30.6 4.84785 30.6 3.8ZM18.25 3.8C18.25 2.75215 19.1021 1.9 20.15 1.9C21.1978 1.9 22.05 2.75215 22.05 3.8C22.05 4.84785 21.1978 5.7 20.15 5.7C19.1021 5.7 18.25 4.84785 18.25 3.8ZM5.9 3.8C5.9 2.75215 6.75215 1.9 7.8 1.9C8.84785 1.9 9.7 2.75215 9.7 3.8C9.7 4.84785 8.84785 5.7 7.8 5.7C6.75215 5.7 5.9 4.84785 5.9 3.8ZM7.8 22.8C6.75215 22.8 5.9 21.9478 5.9 20.9C5.9 19.8521 6.75215 19 7.8 19C8.84785 19 9.7 19.8521 9.7 20.9C9.7 21.9478 8.84785 22.8 7.8 22.8ZM7.8 34.2C6.75215 34.2 5.9 33.3479 5.9 32.3C5.9 31.2521 6.75215 30.4 7.8 30.4C8.84785 30.4 9.7 31.2521 9.7 32.3C9.7 33.3479 8.84785 34.2 7.8 34.2ZM57.2 30.4C58.2478 30.4 59.1 31.2521 59.1 32.3C59.1 33.3479 58.2478 34.2 57.2 34.2C56.1521 34.2 55.3 33.3479 55.3 32.3C55.3 31.2521 56.1521 30.4 57.2 30.4ZM57.2 19C58.2478 19 59.1 19.8521 59.1 20.9C59.1 21.9478 58.2478 22.8 57.2 22.8C56.1521 22.8 55.3 21.9478 55.3 20.9C55.3 19.8521 56.1521 19 57.2 19ZM23 14.25H42C43.5713 14.25 44.85 15.5287 44.85 17.1V18.05H20.15V17.1C20.15 15.5287 21.4287 14.25 23 14.25ZM28.7 50.35H23C21.4287 50.35 20.15 49.0713 20.15 47.5V46.55H37.25V48.45C37.25 48.7017 37.3498 48.944 37.5283 49.1217L38.7567 50.35H28.7ZM36.1366 33.25C34.1321 33.25 32.5 34.8811 32.5 36.8875C32.5 37.107 32.5257 37.3217 32.5627 37.5326C32.5741 37.5962 32.5903 37.6571 32.6054 37.7197C32.6416 37.8727 32.6862 38.0209 32.7413 38.1672C32.7641 38.228 32.7859 38.2888 32.8116 38.3477C32.8904 38.5273 32.9816 38.7001 33.089 38.8654C33.0985 38.8797 33.1051 38.8949 33.1146 38.9091C33.1175 38.9139 33.1203 38.9196 33.1232 38.9244C32.9161 38.9414 32.708 38.95 32.5 38.95C28.3095 38.95 24.9 35.5405 24.9 31.35C24.9 27.1595 28.3095 23.75 32.5 23.75C36.6904 23.75 40.1 27.1595 40.1 31.35C40.1 32.5793 39.8055 33.7696 39.2412 34.8479L38.7082 34.3159C38.0214 33.6281 37.1094 33.25 36.1366 33.25ZM44.85 40.4567L40.6329 36.2406C41.5288 34.7614 42 33.0876 42 31.35C42 26.1117 37.7383 21.85 32.5 21.85C27.2617 21.85 23 26.1117 23 31.35C23 36.5883 27.2617 40.85 32.5 40.85C33.2344 40.85 33.9611 40.7398 34.6774 40.5707L37.25 43.1433V44.65H20.15V19.95H44.85V35.15V40.4567Z" fill="#292929"/>
<path d="M30.3966 32.6469L28.2956 30.4117L27 31.7901L29.7488 34.7144C29.9274 34.9045 30.162 35 30.3966 35C30.6311 35 30.8657 34.9045 31.0443 34.7144L37 28.3783L35.7044 27L30.3966 32.6469Z" fill="#292929"/>
<path d="M24 41H22V43H24V41Z" fill="#292929"/>
<path d="M24 37H22V39H24V37Z" fill="#292929"/>
<path d="M28 41H26V43H28V41Z" fill="#292929"/>
</svg>
