<?xml version="1.0" encoding="utf-8"?>
<!-- Generator: Adobe Illustrator 18.0.0, SVG Export Plug-In . 
SVG Version: 6.00 Build 0)  -->
<!DOCTYPE svg PUBLIC "-//W3C//DTD SVG 1.1//EN" 
"http://www.w3.org/Graphics/SVG/1.1/DTD/svg11.dtd">
<svg width="66" height="66" viewBox="0 0 66 66" fill="none" xmlns="http://www.w3.org/2000/svg">
<path d="M48.544 52C48.7887 52 49.0335 51.9123 49.2199 51.7379L54 47.2649L52.6482 46L48.544 49.8405L46.3518 47.7892L45 49.0541L47.8681 51.7379C48.0545 51.9123 48.2992 52 48.544 52Z" fill="#292929"/>
<path d="M57.0667 4.8H54.2667V2.93333C54.2667 2.4172 53.8485 2 53.3333 2H42.1333C41.6181 2 41.2 2.4172 41.2 2.93333V4.8H38.4C37.8848 4.8 37.4667 5.2172 37.4667 5.73333V14.1333H29.0667V9.46667H33.7333C34.2485 9.46667 34.6667 9.04947 34.6667 8.53333V2.93333C34.6667 2.4172 34.2485 2 33.7333 2H22.5333C22.0181 2 21.6 2.4172 21.6 2.93333V8.53333C21.6 9.04947 22.0181 9.46667 22.5333 9.46667H27.2V14.1333H18.8V5.73333C18.8 5.2172 18.3819 4.8 17.8667 4.8H15.0667V2.93333C15.0667 2.4172 14.6485 2 14.1333 2H2.93333C2.41813 2 2 2.4172 2 2.93333V8.53333C2 9.04947 2.41813 9.46667 2.93333 9.46667H14.1333C14.6485 9.46667 15.0667 9.04947 15.0667 8.53333V6.66667H16.9333V15.0667C16.9333 15.5828 17.3515 16 17.8667 16H27.2V18.8H22.5333C22.0181 18.8 21.6 19.2172 21.6 19.7333V25.3333C21.6 25.8495 22.0181 26.2667 22.5333 26.2667H27.2V29.0667H15.0667V27.2C15.0667 26.6839 14.6485 26.2667 14.1333 26.2667H9.46667V23.4667H14.1333C14.6485 23.4667 15.0667 23.0495 15.0667 22.5333V16.9333C15.0667 16.4172 14.6485 16 14.1333 16H2.93333C2.41813 16 2 16.4172 2 16.9333V22.5333C2 23.0495 2.41813 23.4667 2.93333 23.4667H7.6V26.2667H2.93333C2.41813 26.2667 2 26.6839 2 27.2V32.8C2 33.3161 2.41813 33.7333 2.93333 33.7333H14.1333C14.6485 33.7333 15.0667 33.3161 15.0667 32.8V30.9333H27.2V33.7333H22.5333C22.0181 33.7333 21.6 34.1505 21.6 34.6667V40.2667C21.6 40.7828 22.0181 41.2 22.5333 41.2H27.2V45.8667H22.5333C22.0181 45.8667 21.6 46.2839 21.6 46.8V52.4C21.6 52.9161 22.0181 53.3333 22.5333 53.3333H33.7333C34.2485 53.3333 34.6667 52.9161 34.6667 52.4V50.5333H41.2551C41.7217 54.7268 45.2843 58 49.6 58C54.2312 58 58 54.2321 58 49.6C58 44.9679 54.2312 41.2 49.6 41.2C45.2843 41.2 41.7208 44.4732 41.2551 48.6667H34.6667V46.8C34.6667 46.2839 34.2485 45.8667 33.7333 45.8667H29.0667V41.2H33.7333C34.2485 41.2 34.6667 40.7828 34.6667 40.2667V38.4H57.0667C57.5819 38.4 58 37.9828 58 37.4667V5.73333C58 5.2172 57.5819 4.8 57.0667 4.8ZM23.4667 3.86667H32.8V7.6H23.4667V3.86667ZM13.2 7.6H3.86667V3.86667H13.2V7.6ZM3.86667 17.8667H13.2V21.6H3.86667V17.8667ZM13.2 31.8667H3.86667V28.1333H13.2V31.8667ZM49.6 43.0667C53.2027 43.0667 56.1333 45.9983 56.1333 49.6C56.1333 53.2017 53.2027 56.1333 49.6 56.1333C45.9973 56.1333 43.0667 53.2017 43.0667 49.6C43.0667 45.9983 45.9973 43.0667 49.6 43.0667ZM32.8 51.4667H23.4667V47.7333H32.8V51.4667ZM43.0667 3.86667H52.4V7.6H43.0667V3.86667ZM23.4667 20.6667H32.8V24.4H23.4667V20.6667ZM32.8 39.3333H23.4667V35.6H32.8V39.3333ZM56.1333 36.5333H34.6667V34.6667C34.6667 34.1505 34.2485 33.7333 33.7333 33.7333H29.0667V26.2667H33.7333C34.2485 26.2667 34.6667 25.8495 34.6667 25.3333V19.7333C34.6667 19.2172 34.2485 18.8 33.7333 18.8H29.0667V16H38.4C38.9152 16 39.3333 15.5828 39.3333 15.0667V6.66667H41.2V8.53333C41.2 9.04947 41.6181 9.46667 42.1333 9.46667H53.3333C53.8485 9.46667 54.2667 9.04947 54.2667 8.53333V6.66667H56.1333V36.5333Z" fill="#292929"/>
</svg>
