<?xml version="1.0" encoding="utf-8"?>
<!-- Generator: Adobe Illustrator 18.0.0, SVG Export Plug-In . 
SVG Version: 6.00 Build 0)  -->
<!DOCTYPE svg PUBLIC "-//W3C//DTD SVG 1.1//EN" 
"http://www.w3.org/Graphics/SVG/1.1/DTD/svg11.dtd">
<svg width="66" height="66" viewBox="0 0 66 66" fill="none" xmlns="http://www.w3.org/2000/svg">
<path d="M6.09234 9.443H22.3385C22.7446 9.443 23.1508 9.13838 23.1508 8.63069C23.1508 8.123 22.7446 7.91992 22.3385 7.91992H6.09234C5.68618 7.91992 5.28003 8.22454 5.28003 8.73223C5.28003 9.23992 5.68618 9.443 6.09234 9.443Z" fill="#292929"/>
<path d="M26.4 9.443H28.4307C28.8369 9.443 29.243 9.13838 29.243 8.63069C29.243 8.123 28.8369 7.91992 28.4307 7.91992H26.4C25.9938 7.91992 25.5876 8.22454 25.5876 8.73223C25.5876 9.23992 25.9938 9.443 26.4 9.443Z" fill="#292929"/>
<path d="M64.9847 24.166C64.5785 24.166 64.1724 24.4706 64.1724 24.9783V32.086C64.1724 32.4922 64.477 32.8983 64.9847 32.8983C65.4924 32.8983 65.797 32.5937 65.797 32.086V24.9783C65.797 24.4706 65.3908 24.166 64.9847 24.166Z" fill="#292929"/>
<path d="M64.9847 35.3352C64.5785 35.3352 64.1724 35.6398 64.1724 36.1475V37.1629C64.1724 37.5691 64.477 37.9752 64.9847 37.9752C65.4924 37.9752 65.797 37.6706 65.797 37.1629V36.1475C65.797 35.6398 65.3908 35.3352 64.9847 35.3352Z" fill="#292929"/>
<path d="M2.33543 37.0613C2.33543 37.4675 2.64005 37.8737 3.14774 37.8737C3.65543 37.8737 3.96005 37.569 3.96005 37.0613V35.7413H5.07697C5.48312 35.7413 5.88928 35.4367 5.88928 34.929C5.88928 34.4213 5.48312 34.3198 5.07697 34.3198H3.85851V32.9998C3.85851 32.5937 3.55389 32.1875 3.0462 32.1875C2.53851 32.1875 2.23389 32.4921 2.23389 32.9998V34.3198H1.01543C0.609279 34.3198 0.203125 34.6244 0.203125 35.1321C0.203125 35.6398 0.50774 35.9444 1.01543 35.9444H2.33543V37.0613Z" fill="#292929"/>
<path d="M58.8924 8.4276H60.2124V9.7476C60.2124 10.1538 60.517 10.5599 61.0247 10.5599C61.5324 10.5599 61.837 10.2553 61.837 9.7476V8.4276H62.9539C63.3601 8.4276 63.7662 8.12299 63.7662 7.6153C63.7662 7.1076 63.3601 6.90453 62.9539 6.90453H61.6339V5.58453C61.6339 5.17837 61.3293 4.77222 60.8216 4.77222C60.3139 4.77222 60.0093 5.07683 60.0093 5.58453V6.90453H58.8924C58.4862 6.90453 58.0801 7.20914 58.0801 7.71683C58.0801 8.22453 58.4862 8.4276 58.8924 8.4276Z" fill="#292929"/>
<path d="M65.6955 56.1506C65.6955 56.1506 65.6955 56.0491 65.5939 56.0491V55.9476L57.6739 45.9968V13.7076C57.6739 13.3014 57.3693 12.8953 56.8616 12.8953H10.1539C9.74776 12.8953 9.34161 13.1999 9.34161 13.7076V45.8953L1.42161 55.846V55.9476L1.32007 56.0491C1.32007 56.1506 1.32007 56.1506 1.32007 56.2522V56.3537V60.4153C1.32007 60.8214 1.62468 61.2276 2.13238 61.2276H65.0862C65.4924 61.2276 65.8985 60.923 65.8985 60.4153V56.3537V56.2522C65.6955 56.2522 65.6955 56.1506 65.6955 56.1506ZM10.9662 14.5199H56.1508V45.4891H10.9662V14.5199ZM64.2739 59.7045H2.84315V57.166H47.7231C48.1293 57.166 48.5355 56.8614 48.5355 56.3537C48.5355 55.846 48.2308 55.5414 47.7231 55.5414H3.65545L10.5601 46.9106H56.557L63.4616 55.5414H53.8155C53.4093 55.5414 53.0032 55.846 53.0032 56.3537C53.0032 56.8614 53.3078 57.166 53.8155 57.166H64.2739V59.7045Z" fill="#292929"/>
<path d="M52.8 17.0583H14.2154C13.8092 17.0583 13.4031 17.363 13.4031 17.8707V42.2399C13.4031 42.646 13.7077 43.0522 14.2154 43.0522H52.8C53.2062 43.0522 53.6123 42.7476 53.6123 42.2399V17.8707C53.6123 17.363 53.2062 17.0583 52.8 17.0583ZM52.0892 41.4276H15.0277V18.5814H52.0892V41.4276Z" fill="#292929"/>
<path d="M33.2032 30.7662L35.4371 33L36.554 31.8831L34.3201 29.6493L36.554 28.5323L30.4617 26.9077L32.0863 33L33.2032 30.7662Z" fill="#292929"/>
<path d="M51.074 55.643C50.7694 55.5415 50.4647 55.5415 50.2617 55.8461C50.1601 55.9476 50.0586 56.1507 50.0586 56.3538C50.0586 56.5569 50.1601 56.7599 50.2617 56.8615C50.3632 56.963 50.5663 57.0645 50.7694 57.0645C50.8709 57.0645 50.9724 57.0645 51.074 57.0645C51.1755 57.0645 51.2771 56.963 51.2771 56.8615C51.3786 56.7599 51.3786 56.6584 51.4801 56.6584C51.4801 56.5569 51.5817 56.4553 51.5817 56.3538C51.5817 56.1507 51.4801 55.9476 51.3786 55.8461C51.2771 55.7445 51.1755 55.643 51.074 55.643Z" fill="#292929"/>
</svg>
