<?xml version="1.0" encoding="utf-8"?>
<!-- Generator: Adobe Illustrator 18.0.0, SVG Export Plug-In . 
SVG Version: 6.00 Build 0)  -->
<!DOCTYPE svg PUBLIC "-//W3C//DTD SVG 1.1//EN" 
"http://www.w3.org/Graphics/SVG/1.1/DTD/svg11.dtd">
<svg width="66" height="66" viewBox="0 0 66 66" fill="none" xmlns="http://www.w3.org/2000/svg">
<path d="M33.5 2.99561C17.7594 2.99561 5 15.7408 5 31.4614C5 47.1858 17.7594 59.932 33.5 59.932C49.2395 59.932 62 47.1858 62 31.4614C62 15.7408 49.2395 2.99561 33.5 2.99561ZM29.8529 5.17772C27.2755 7.85672 25.0972 10.9176 23.3929 14.2588C21.1214 13.3212 19.0134 12.0776 17.1096 10.5803C20.7206 7.75035 25.083 5.83229 29.8529 5.17772ZM15.6276 11.8401C17.7195 13.5292 20.0517 14.9256 22.5712 15.9746C20.5733 20.4357 19.4029 25.3425 19.2756 30.5143H6.94657C7.20968 23.1108 10.5062 16.4913 15.6276 11.8401ZM6.94657 32.4114H19.2747C19.4039 37.6525 20.6028 42.6238 22.6501 47.1317C20.2048 48.2089 17.9381 49.6236 15.9098 51.3279C10.6316 46.6624 7.21443 39.9496 6.94657 32.4114ZM17.4089 52.5685C19.248 51.0637 21.2867 49.8107 23.4832 48.8501C25.1733 52.1182 27.3174 55.1155 29.8473 57.7469C25.2085 57.1085 20.96 55.2712 17.4089 52.5685ZM32.55 57.7317C29.6136 54.9776 27.1426 51.7381 25.2578 48.1452C27.5596 47.3321 30.0059 46.8446 32.55 46.7183V57.7317ZM32.55 44.806C29.7048 44.94 26.9707 45.4891 24.4076 46.4163C22.4477 42.1327 21.3039 37.3998 21.1737 32.4104H32.55V44.806ZM32.55 30.5133H21.1737C21.302 25.5771 22.4259 20.8936 24.3478 16.6452C26.9356 17.5249 29.6868 18.0407 32.5492 18.1329V30.5133H32.55ZM32.55 16.2377C29.9812 16.1465 27.5112 15.6924 25.1809 14.9201C27.0743 11.2702 29.5746 7.98217 32.55 5.19113V16.2377ZM60.0535 30.5133H47.7244C47.5951 25.3462 46.4106 20.4433 44.3899 15.9935C46.9255 14.9428 49.27 13.5339 51.3743 11.8343C56.4957 16.4875 59.7902 23.1108 60.0535 30.5133ZM49.8856 10.5803C47.9685 12.088 45.8463 13.3411 43.5577 14.2825C41.8145 10.9139 39.5829 7.83483 36.94 5.15015C41.7897 5.77622 46.2225 7.71142 49.8856 10.5803ZM34.45 5.37536C37.3978 8.12085 39.8773 11.3509 41.764 14.9371C39.4498 15.698 36.9988 16.1464 34.45 16.2377V5.37536ZM34.45 18.1339C37.2991 18.0407 40.036 17.5306 42.6114 16.6594C44.5579 20.8964 45.6951 25.5808 45.8253 30.5142H34.45V18.1339ZM34.45 32.4114H45.8263C45.6971 37.32 44.5684 41.9807 42.6399 46.2035C40.0541 45.338 37.3076 44.8394 34.45 44.7746V32.4114ZM34.45 57.5493V46.687C37.0084 46.7469 39.4697 47.1791 41.7944 47.9314C39.9039 51.5406 37.4121 54.7887 34.45 57.5493ZM36.9362 57.7764C39.5962 55.0755 41.841 51.9719 43.5899 48.5775C45.8871 49.5142 48.0151 50.7768 49.9398 52.2997C46.2642 55.1933 41.8116 57.1465 36.9362 57.7764ZM51.4265 51.0466C49.3156 49.3299 46.9663 47.9058 44.4222 46.8571C46.4238 42.4264 47.5961 37.5491 47.7253 32.4105H60.0535C59.7913 39.7938 56.5185 46.3973 51.4265 51.0466Z" fill="#292929"/>
</svg>
