<?xml version="1.0" encoding="utf-8"?>
<!-- Generator: Adobe Illustrator 18.0.0, SVG Export Plug-In . 
SVG Version: 6.00 Build 0)  -->
<!DOCTYPE svg PUBLIC "-//W3C//DTD SVG 1.1//EN" 
"http://www.w3.org/Graphics/SVG/1.1/DTD/svg11.dtd">
<svg width="66" height="66" viewBox="0 0 66 66" fill="none" xmlns="http://www.w3.org/2000/svg">
<path d="M61.8638 6.01771C55.6831 7.25369 49.4169 7.25369 43.2371 6.01771C42.9588 5.96356 42.6681 6.03481 42.4487 6.21437C42.2282 6.39487 42.1 6.66373 42.1 6.94873V12.6489H10.75C8.13085 12.6489 6 14.7798 6 17.399V45.8996C6 48.5188 8.13085 50.6497 10.75 50.6497H28.5653L27.0872 57.2999H22.15C21.6247 57.2999 21.2 57.7245 21.2 58.2499C21.2 60.8691 23.3309 63 25.95 63H43.05C45.6692 63 47.8 60.8691 47.8 58.2499C47.8 57.7245 47.3754 57.2999 46.85 57.2999H41.9119L40.4337 50.6497H58.25C60.8691 50.6497 63 48.5188 63 45.8996V17.7362V6.94873C63 6.66373 62.8717 6.39487 62.6523 6.21437C62.4328 6.03481 62.1441 5.96451 61.8638 6.01771ZM44 8.09351C49.68 9.09578 55.4199 9.09578 61.1 8.09351V17.7362C61.1 19.5945 60.1918 21.3406 58.669 22.4056L52.55 26.6892L46.431 22.4056C44.9082 21.3406 44 19.5954 44 17.7362V13.5989V8.09351ZM43.05 61.1H25.95C24.7112 61.1 23.6548 60.3057 23.2624 59.1999H27.85H41.15H45.7375C45.3452 60.3057 44.2888 61.1 43.05 61.1ZM39.9653 57.2999H29.0346L30.5119 50.6497H38.4881L39.9653 57.2999ZM58.25 48.7497H39.25H29.75H10.75C9.1787 48.7497 7.9 47.471 7.9 45.8996V43.0495H16.45H52.55H61.1V45.8996C61.1 47.471 59.8213 48.7497 58.25 48.7497ZM17.4 24.0491V18.349H30.7V24.0491H17.4ZM61.1 22.7628V41.1495H53.5V29.7493H51.6V41.1495H17.4V25.9492H44V24.0491H32.6V18.349H40.2V16.4489H16.45C15.9247 16.4489 15.5 16.8736 15.5 17.399V41.1495H7.9V17.399C7.9 15.8276 9.1787 14.5489 10.75 14.5489H42.1V17.7362C42.1 20.2139 43.3112 22.5424 45.3414 23.9627L52.0056 28.6273C52.169 28.7413 52.36 28.7992 52.55 28.7992C52.74 28.7992 52.931 28.7413 53.0944 28.6273L59.7586 23.9627C60.0094 23.7869 60.2478 23.5969 60.473 23.3955C60.5661 23.3119 60.6478 23.2179 60.7361 23.1305C60.8587 23.0088 60.986 22.892 61.1 22.7628Z" fill="#292929"/>
<path d="M51.5596 20C51.8055 20 52.0513 19.911 52.2385 19.7339L58 14.2843L56.6422 13L51.5596 17.8074L49.3578 15.7248L48 17.0091L50.8807 19.7339C51.068 19.911 51.3138 20 51.5596 20Z" fill="#292929"/>
<path d="M21 20H20V22H21V20Z" fill="#292929"/>
<path d="M25 20H23V22H25V20Z" fill="#292929"/>
<path d="M29 20H27V22H29V20Z" fill="#292929"/>
<path d="M29 29H21C20.447 29 20 29.4023 20 29.9V37.1C20 37.5977 20.447 38 21 38H29C29.553 38 30 37.5977 30 37.1V29.9C30 29.4023 29.553 29 29 29ZM28 36.2H22V30.8H28V36.2Z" fill="#292929"/>
<path d="M47 29H35V31H47V29Z" fill="#292929"/>
<path d="M47 33H35V35H47V33Z" fill="#292929"/>
<path d="M44 36H35V38H44V36Z" fill="#292929"/>
<path d="M47 36H46V38H47V36Z" fill="#292929"/>
</svg>
