<?xml version="1.0" encoding="utf-8"?>
<!-- Generator: Adobe Illustrator 18.0.0, SVG Export Plug-In . 
SVG Version: 6.00 Build 0)  -->
<!DOCTYPE svg PUBLIC "-//W3C//DTD SVG 1.1//EN" 
"http://www.w3.org/Graphics/SVG/1.1/DTD/svg11.dtd">
<svg width="489" height="201" viewBox="0 0 489 201" fill="none" xmlns="http://www.w3.org/2000/svg">
<circle cx="3" cy="3" r="3" fill="#E9E9E9"/>
<circle cx="26" cy="3" r="3" fill="#E9E9E9"/>
<circle cx="49" cy="3" r="3" fill="#E9E9E9"/>
<circle cx="72" cy="3" r="3" fill="#E9E9E9"/>
<circle cx="95" cy="3" r="3" fill="#E9E9E9"/>
<circle cx="118" cy="3" r="3" fill="#E9E9E9"/>
<circle cx="141" cy="3" r="3" fill="#E9E9E9"/>
<circle cx="164" cy="3" r="3" fill="#E9E9E9"/>
<circle cx="187" cy="3" r="3" fill="#E9E9E9"/>
<circle cx="210" cy="3" r="3" fill="#E9E9E9"/>
<circle cx="233" cy="3" r="3" fill="#E9E9E9"/>
<circle cx="256" cy="3" r="3" fill="#E9E9E9"/>
<circle cx="279" cy="3" r="3" fill="#E9E9E9"/>
<circle cx="302" cy="3" r="3" fill="#E9E9E9"/>
<circle cx="325" cy="3" r="3" fill="#E9E9E9"/>
<circle cx="348" cy="3" r="3" fill="#E9E9E9"/>
<circle cx="371" cy="3" r="3" fill="#E9E9E9"/>
<circle cx="394" cy="3" r="3" fill="#E9E9E9"/>
<circle cx="417" cy="3" r="3" fill="#E9E9E9"/>
<circle cx="440" cy="3" r="3" fill="#E9E9E9"/>
<circle cx="463" cy="3" r="3" fill="#E9E9E9"/>
<circle cx="486" cy="3" r="3" fill="#E9E9E9"/>
<circle cx="3" cy="18" r="3" fill="#E9E9E9"/>
<circle cx="26" cy="18" r="3" fill="#E9E9E9"/>
<circle cx="49" cy="18" r="3" fill="#E9E9E9"/>
<circle cx="72" cy="18" r="3" fill="#E9E9E9"/>
<circle cx="95" cy="18" r="3" fill="#E9E9E9"/>
<circle cx="118" cy="18" r="3" fill="#E9E9E9"/>
<circle cx="141" cy="18" r="3" fill="#E9E9E9"/>
<circle cx="164" cy="18" r="3" fill="#E9E9E9"/>
<circle cx="187" cy="18" r="3" fill="#E9E9E9"/>
<circle cx="210" cy="18" r="3" fill="#E9E9E9"/>
<circle cx="233" cy="18" r="3" fill="#E9E9E9"/>
<circle cx="256" cy="18" r="3" fill="#E9E9E9"/>
<circle cx="279" cy="18" r="3" fill="#E9E9E9"/>
<circle cx="302" cy="18" r="3" fill="#E9E9E9"/>
<circle cx="325" cy="18" r="3" fill="#E9E9E9"/>
<circle cx="348" cy="18" r="3" fill="#E9E9E9"/>
<circle cx="371" cy="18" r="3" fill="#E9E9E9"/>
<circle cx="394" cy="18" r="3" fill="#E9E9E9"/>
<circle cx="417" cy="18" r="3" fill="#E9E9E9"/>
<circle cx="440" cy="18" r="3" fill="#E9E9E9"/>
<circle cx="463" cy="18" r="3" fill="#E9E9E9"/>
<circle cx="486" cy="18" r="3" fill="#E9E9E9"/>
<circle cx="3" cy="33" r="3" fill="#E9E9E9"/>
<circle cx="26" cy="33" r="3" fill="#E9E9E9"/>
<circle cx="49" cy="33" r="3" fill="#E9E9E9"/>
<circle cx="72" cy="33" r="3" fill="#E9E9E9"/>
<circle cx="95" cy="33" r="3" fill="#E9E9E9"/>
<circle cx="118" cy="33" r="3" fill="#E9E9E9"/>
<circle cx="141" cy="33" r="3" fill="#E9E9E9"/>
<circle cx="164" cy="33" r="3" fill="#E9E9E9"/>
<circle cx="187" cy="33" r="3" fill="#E9E9E9"/>
<circle cx="210" cy="33" r="3" fill="#E9E9E9"/>
<circle cx="233" cy="33" r="3" fill="#E9E9E9"/>
<circle cx="256" cy="33" r="3" fill="#E9E9E9"/>
<circle cx="279" cy="33" r="3" fill="#E9E9E9"/>
<circle cx="302" cy="33" r="3" fill="#E9E9E9"/>
<circle cx="325" cy="33" r="3" fill="#E9E9E9"/>
<circle cx="348" cy="33" r="3" fill="#E9E9E9"/>
<circle cx="371" cy="33" r="3" fill="#E9E9E9"/>
<circle cx="394" cy="33" r="3" fill="#E9E9E9"/>
<circle cx="417" cy="33" r="3" fill="#E9E9E9"/>
<circle cx="440" cy="33" r="3" fill="#E9E9E9"/>
<circle cx="463" cy="33" r="3" fill="#E9E9E9"/>
<circle cx="486" cy="33" r="3" fill="#E9E9E9"/>
<circle cx="3" cy="48" r="3" fill="#E9E9E9"/>
<circle cx="26" cy="48" r="3" fill="#E9E9E9"/>
<circle cx="49" cy="48" r="3" fill="#E9E9E9"/>
<circle cx="72" cy="48" r="3" fill="#E9E9E9"/>
<circle cx="95" cy="48" r="3" fill="#E9E9E9"/>
<circle cx="118" cy="48" r="3" fill="#E9E9E9"/>
<circle cx="141" cy="48" r="3" fill="#E9E9E9"/>
<circle cx="164" cy="48" r="3" fill="#E9E9E9"/>
<circle cx="187" cy="48" r="3" fill="#E9E9E9"/>
<circle cx="210" cy="48" r="3" fill="#E9E9E9"/>
<circle cx="233" cy="48" r="3" fill="#E9E9E9"/>
<circle cx="256" cy="48" r="3" fill="#E9E9E9"/>
<circle cx="279" cy="48" r="3" fill="#E9E9E9"/>
<circle cx="302" cy="48" r="3" fill="#E9E9E9"/>
<circle cx="325" cy="48" r="3" fill="#E9E9E9"/>
<circle cx="348" cy="48" r="3" fill="#E9E9E9"/>
<circle cx="371" cy="48" r="3" fill="#E9E9E9"/>
<circle cx="394" cy="48" r="3" fill="#E9E9E9"/>
<circle cx="417" cy="48" r="3" fill="#E9E9E9"/>
<circle cx="440" cy="48" r="3" fill="#E9E9E9"/>
<circle cx="463" cy="48" r="3" fill="#E9E9E9"/>
<circle cx="486" cy="48" r="3" fill="#E9E9E9"/>
<circle cx="3" cy="63" r="3" fill="#E9E9E9"/>
<circle cx="26" cy="63" r="3" fill="#E9E9E9"/>
<circle cx="49" cy="63" r="3" fill="#E9E9E9"/>
<circle cx="72" cy="63" r="3" fill="#E9E9E9"/>
<circle cx="95" cy="63" r="3" fill="#E9E9E9"/>
<circle cx="118" cy="63" r="3" fill="#E9E9E9"/>
<circle cx="141" cy="63" r="3" fill="#E9E9E9"/>
<circle cx="164" cy="63" r="3" fill="#E9E9E9"/>
<circle cx="187" cy="63" r="3" fill="#E9E9E9"/>
<circle cx="210" cy="63" r="3" fill="#E9E9E9"/>
<circle cx="233" cy="63" r="3" fill="#E9E9E9"/>
<circle cx="256" cy="63" r="3" fill="#E9E9E9"/>
<circle cx="279" cy="63" r="3" fill="#E9E9E9"/>
<circle cx="302" cy="63" r="3" fill="#E9E9E9"/>
<circle cx="325" cy="63" r="3" fill="#E9E9E9"/>
<circle cx="348" cy="63" r="3" fill="#E9E9E9"/>
<circle cx="371" cy="63" r="3" fill="#E9E9E9"/>
<circle cx="394" cy="63" r="3" fill="#E9E9E9"/>
<circle cx="417" cy="63" r="3" fill="#E9E9E9"/>
<circle cx="440" cy="63" r="3" fill="#E9E9E9"/>
<circle cx="463" cy="63" r="3" fill="#E9E9E9"/>
<circle cx="486" cy="63" r="3" fill="#E9E9E9"/>
<circle cx="3" cy="78" r="3" fill="#E9E9E9"/>
<circle cx="26" cy="78" r="3" fill="#E9E9E9"/>
<circle cx="49" cy="78" r="3" fill="#E9E9E9"/>
<circle cx="72" cy="78" r="3" fill="#E9E9E9"/>
<circle cx="95" cy="78" r="3" fill="#E9E9E9"/>
<circle cx="118" cy="78" r="3" fill="#E9E9E9"/>
<circle cx="141" cy="78" r="3" fill="#E9E9E9"/>
<circle cx="164" cy="78" r="3" fill="#E9E9E9"/>
<circle cx="187" cy="78" r="3" fill="#E9E9E9"/>
<circle cx="210" cy="78" r="3" fill="#E9E9E9"/>
<circle cx="233" cy="78" r="3" fill="#E9E9E9"/>
<circle cx="256" cy="78" r="3" fill="#E9E9E9"/>
<circle cx="279" cy="78" r="3" fill="#E9E9E9"/>
<circle cx="302" cy="78" r="3" fill="#E9E9E9"/>
<circle cx="325" cy="78" r="3" fill="#E9E9E9"/>
<circle cx="348" cy="78" r="3" fill="#E9E9E9"/>
<circle cx="371" cy="78" r="3" fill="#E9E9E9"/>
<circle cx="394" cy="78" r="3" fill="#E9E9E9"/>
<circle cx="417" cy="78" r="3" fill="#E9E9E9"/>
<circle cx="440" cy="78" r="3" fill="#E9E9E9"/>
<circle cx="463" cy="78" r="3" fill="#E9E9E9"/>
<circle cx="486" cy="78" r="3" fill="#E9E9E9"/>
<circle cx="3" cy="93" r="3" fill="#E9E9E9"/>
<circle cx="26" cy="93" r="3" fill="#E9E9E9"/>
<circle cx="49" cy="93" r="3" fill="#E9E9E9"/>
<circle cx="72" cy="93" r="3" fill="#E9E9E9"/>
<circle cx="95" cy="93" r="3" fill="#E9E9E9"/>
<circle cx="118" cy="93" r="3" fill="#E9E9E9"/>
<circle cx="141" cy="93" r="3" fill="#E9E9E9"/>
<circle cx="164" cy="93" r="3" fill="#E9E9E9"/>
<circle cx="187" cy="93" r="3" fill="#E9E9E9"/>
<circle cx="210" cy="93" r="3" fill="#E9E9E9"/>
<circle cx="233" cy="93" r="3" fill="#E9E9E9"/>
<circle cx="256" cy="93" r="3" fill="#E9E9E9"/>
<circle cx="279" cy="93" r="3" fill="#E9E9E9"/>
<circle cx="302" cy="93" r="3" fill="#E9E9E9"/>
<circle cx="325" cy="93" r="3" fill="#E9E9E9"/>
<circle cx="348" cy="93" r="3" fill="#E9E9E9"/>
<circle cx="371" cy="93" r="3" fill="#E9E9E9"/>
<circle cx="394" cy="93" r="3" fill="#E9E9E9"/>
<circle cx="417" cy="93" r="3" fill="#E9E9E9"/>
<circle cx="440" cy="93" r="3" fill="#E9E9E9"/>
<circle cx="463" cy="93" r="3" fill="#E9E9E9"/>
<circle cx="486" cy="93" r="3" fill="#E9E9E9"/>
<circle cx="3" cy="108" r="3" fill="#E9E9E9"/>
<circle cx="26" cy="108" r="3" fill="#E9E9E9"/>
<circle cx="49" cy="108" r="3" fill="#E9E9E9"/>
<circle cx="72" cy="108" r="3" fill="#E9E9E9"/>
<circle cx="95" cy="108" r="3" fill="#E9E9E9"/>
<circle cx="118" cy="108" r="3" fill="#E9E9E9"/>
<circle cx="141" cy="108" r="3" fill="#E9E9E9"/>
<circle cx="164" cy="108" r="3" fill="#E9E9E9"/>
<circle cx="187" cy="108" r="3" fill="#E9E9E9"/>
<circle cx="210" cy="108" r="3" fill="#E9E9E9"/>
<circle cx="233" cy="108" r="3" fill="#E9E9E9"/>
<circle cx="256" cy="108" r="3" fill="#E9E9E9"/>
<circle cx="279" cy="108" r="3" fill="#E9E9E9"/>
<circle cx="302" cy="108" r="3" fill="#E9E9E9"/>
<circle cx="325" cy="108" r="3" fill="#E9E9E9"/>
<circle cx="348" cy="108" r="3" fill="#E9E9E9"/>
<circle cx="371" cy="108" r="3" fill="#E9E9E9"/>
<circle cx="394" cy="108" r="3" fill="#E9E9E9"/>
<circle cx="417" cy="108" r="3" fill="#E9E9E9"/>
<circle cx="440" cy="108" r="3" fill="#E9E9E9"/>
<circle cx="463" cy="108" r="3" fill="#E9E9E9"/>
<circle cx="486" cy="108" r="3" fill="#E9E9E9"/>
<circle cx="3" cy="123" r="3" fill="#E9E9E9"/>
<circle cx="26" cy="123" r="3" fill="#E9E9E9"/>
<circle cx="49" cy="123" r="3" fill="#E9E9E9"/>
<circle cx="72" cy="123" r="3" fill="#E9E9E9"/>
<circle cx="95" cy="123" r="3" fill="#E9E9E9"/>
<circle cx="118" cy="123" r="3" fill="#E9E9E9"/>
<circle cx="141" cy="123" r="3" fill="#E9E9E9"/>
<circle cx="164" cy="123" r="3" fill="#E9E9E9"/>
<circle cx="187" cy="123" r="3" fill="#E9E9E9"/>
<circle cx="210" cy="123" r="3" fill="#E9E9E9"/>
<circle cx="233" cy="123" r="3" fill="#E9E9E9"/>
<circle cx="256" cy="123" r="3" fill="#E9E9E9"/>
<circle cx="279" cy="123" r="3" fill="#E9E9E9"/>
<circle cx="302" cy="123" r="3" fill="#E9E9E9"/>
<circle cx="325" cy="123" r="3" fill="#E9E9E9"/>
<circle cx="348" cy="123" r="3" fill="#E9E9E9"/>
<circle cx="371" cy="123" r="3" fill="#E9E9E9"/>
<circle cx="394" cy="123" r="3" fill="#E9E9E9"/>
<circle cx="417" cy="123" r="3" fill="#E9E9E9"/>
<circle cx="440" cy="123" r="3" fill="#E9E9E9"/>
<circle cx="463" cy="123" r="3" fill="#E9E9E9"/>
<circle cx="486" cy="123" r="3" fill="#E9E9E9"/>
<circle cx="3" cy="138" r="3" fill="#E9E9E9"/>
<circle cx="26" cy="138" r="3" fill="#E9E9E9"/>
<circle cx="49" cy="138" r="3" fill="#E9E9E9"/>
<circle cx="72" cy="138" r="3" fill="#E9E9E9"/>
<circle cx="95" cy="138" r="3" fill="#E9E9E9"/>
<circle cx="118" cy="138" r="3" fill="#E9E9E9"/>
<circle cx="141" cy="138" r="3" fill="#E9E9E9"/>
<circle cx="164" cy="138" r="3" fill="#E9E9E9"/>
<circle cx="187" cy="138" r="3" fill="#E9E9E9"/>
<circle cx="210" cy="138" r="3" fill="#E9E9E9"/>
<circle cx="233" cy="138" r="3" fill="#E9E9E9"/>
<circle cx="256" cy="138" r="3" fill="#E9E9E9"/>
<circle cx="279" cy="138" r="3" fill="#E9E9E9"/>
<circle cx="302" cy="138" r="3" fill="#E9E9E9"/>
<circle cx="325" cy="138" r="3" fill="#E9E9E9"/>
<circle cx="348" cy="138" r="3" fill="#E9E9E9"/>
<circle cx="371" cy="138" r="3" fill="#E9E9E9"/>
<circle cx="394" cy="138" r="3" fill="#E9E9E9"/>
<circle cx="417" cy="138" r="3" fill="#E9E9E9"/>
<circle cx="440" cy="138" r="3" fill="#E9E9E9"/>
<circle cx="463" cy="138" r="3" fill="#E9E9E9"/>
<circle cx="486" cy="138" r="3" fill="#E9E9E9"/>
<circle cx="3" cy="153" r="3" fill="#E9E9E9"/>
<circle cx="26" cy="153" r="3" fill="#E9E9E9"/>
<circle cx="49" cy="153" r="3" fill="#E9E9E9"/>
<circle cx="72" cy="153" r="3" fill="#E9E9E9"/>
<circle cx="95" cy="153" r="3" fill="#E9E9E9"/>
<circle cx="118" cy="153" r="3" fill="#E9E9E9"/>
<circle cx="141" cy="153" r="3" fill="#E9E9E9"/>
<circle cx="164" cy="153" r="3" fill="#E9E9E9"/>
<circle cx="187" cy="153" r="3" fill="#E9E9E9"/>
<circle cx="210" cy="153" r="3" fill="#E9E9E9"/>
<circle cx="233" cy="153" r="3" fill="#E9E9E9"/>
<circle cx="256" cy="153" r="3" fill="#E9E9E9"/>
<circle cx="279" cy="153" r="3" fill="#E9E9E9"/>
<circle cx="302" cy="153" r="3" fill="#E9E9E9"/>
<circle cx="325" cy="153" r="3" fill="#E9E9E9"/>
<circle cx="348" cy="153" r="3" fill="#E9E9E9"/>
<circle cx="371" cy="153" r="3" fill="#E9E9E9"/>
<circle cx="394" cy="153" r="3" fill="#E9E9E9"/>
<circle cx="417" cy="153" r="3" fill="#E9E9E9"/>
<circle cx="440" cy="153" r="3" fill="#E9E9E9"/>
<circle cx="463" cy="153" r="3" fill="#E9E9E9"/>
<circle cx="486" cy="153" r="3" fill="#E9E9E9"/>
<circle cx="3" cy="168" r="3" fill="#E9E9E9"/>
<circle cx="26" cy="168" r="3" fill="#E9E9E9"/>
<circle cx="49" cy="168" r="3" fill="#E9E9E9"/>
<circle cx="72" cy="168" r="3" fill="#E9E9E9"/>
<circle cx="95" cy="168" r="3" fill="#E9E9E9"/>
<circle cx="118" cy="168" r="3" fill="#E9E9E9"/>
<circle cx="141" cy="168" r="3" fill="#E9E9E9"/>
<circle cx="164" cy="168" r="3" fill="#E9E9E9"/>
<circle cx="187" cy="168" r="3" fill="#E9E9E9"/>
<circle cx="210" cy="168" r="3" fill="#E9E9E9"/>
<circle cx="233" cy="168" r="3" fill="#E9E9E9"/>
<circle cx="256" cy="168" r="3" fill="#E9E9E9"/>
<circle cx="279" cy="168" r="3" fill="#E9E9E9"/>
<circle cx="302" cy="168" r="3" fill="#E9E9E9"/>
<circle cx="325" cy="168" r="3" fill="#E9E9E9"/>
<circle cx="348" cy="168" r="3" fill="#E9E9E9"/>
<circle cx="371" cy="168" r="3" fill="#E9E9E9"/>
<circle cx="394" cy="168" r="3" fill="#E9E9E9"/>
<circle cx="417" cy="168" r="3" fill="#E9E9E9"/>
<circle cx="440" cy="168" r="3" fill="#E9E9E9"/>
<circle cx="463" cy="168" r="3" fill="#E9E9E9"/>
<circle cx="486" cy="168" r="3" fill="#E9E9E9"/>
<circle cx="3" cy="183" r="3" fill="#E9E9E9"/>
<circle cx="26" cy="183" r="3" fill="#E9E9E9"/>
<circle cx="49" cy="183" r="3" fill="#E9E9E9"/>
<circle cx="72" cy="183" r="3" fill="#E9E9E9"/>
<circle cx="95" cy="183" r="3" fill="#E9E9E9"/>
<circle cx="118" cy="183" r="3" fill="#E9E9E9"/>
<circle cx="141" cy="183" r="3" fill="#E9E9E9"/>
<circle cx="164" cy="183" r="3" fill="#E9E9E9"/>
<circle cx="187" cy="183" r="3" fill="#E9E9E9"/>
<circle cx="210" cy="183" r="3" fill="#E9E9E9"/>
<circle cx="233" cy="183" r="3" fill="#E9E9E9"/>
<circle cx="256" cy="183" r="3" fill="#E9E9E9"/>
<circle cx="279" cy="183" r="3" fill="#E9E9E9"/>
<circle cx="302" cy="183" r="3" fill="#E9E9E9"/>
<circle cx="325" cy="183" r="3" fill="#E9E9E9"/>
<circle cx="348" cy="183" r="3" fill="#E9E9E9"/>
<circle cx="371" cy="183" r="3" fill="#E9E9E9"/>
<circle cx="394" cy="183" r="3" fill="#E9E9E9"/>
<circle cx="417" cy="183" r="3" fill="#E9E9E9"/>
<circle cx="440" cy="183" r="3" fill="#E9E9E9"/>
<circle cx="463" cy="183" r="3" fill="#E9E9E9"/>
<circle cx="486" cy="183" r="3" fill="#E9E9E9"/>
<circle cx="3" cy="198" r="3" fill="#E9E9E9"/>
<circle cx="26" cy="198" r="3" fill="#E9E9E9"/>
<circle cx="49" cy="198" r="3" fill="#E9E9E9"/>
<circle cx="72" cy="198" r="3" fill="#E9E9E9"/>
<circle cx="95" cy="198" r="3" fill="#E9E9E9"/>
<circle cx="118" cy="198" r="3" fill="#E9E9E9"/>
<circle cx="141" cy="198" r="3" fill="#E9E9E9"/>
<circle cx="164" cy="198" r="3" fill="#E9E9E9"/>
<circle cx="187" cy="198" r="3" fill="#E9E9E9"/>
<circle cx="210" cy="198" r="3" fill="#E9E9E9"/>
<circle cx="233" cy="198" r="3" fill="#E9E9E9"/>
<circle cx="256" cy="198" r="3" fill="#E9E9E9"/>
<circle cx="279" cy="198" r="3" fill="#E9E9E9"/>
<circle cx="302" cy="198" r="3" fill="#E9E9E9"/>
<circle cx="325" cy="198" r="3" fill="#E9E9E9"/>
<circle cx="348" cy="198" r="3" fill="#E9E9E9"/>
<circle cx="371" cy="198" r="3" fill="#E9E9E9"/>
<circle cx="394" cy="198" r="3" fill="#E9E9E9"/>
<circle cx="417" cy="198" r="3" fill="#E9E9E9"/>
<circle cx="440" cy="198" r="3" fill="#E9E9E9"/>
<circle cx="463" cy="198" r="3" fill="#E9E9E9"/>
<circle cx="486" cy="198" r="3" fill="#E9E9E9"/>
</svg>
