<?xml version="1.0" encoding="utf-8"?>
<!-- Generator: Adobe Illustrator 18.0.0, SVG Export Plug-In . 
SVG Version: 6.00 Build 0)  -->
<!DOCTYPE svg PUBLIC "-//W3C//DTD SVG 1.1//EN" 
"http://www.w3.org/Graphics/SVG/1.1/DTD/svg11.dtd">
<svg width="66" height="66" viewBox="0 0 66 66" fill="none" xmlns="http://www.w3.org/2000/svg">
<path d="M61.9331 5.16675H4.06686C1.82428 5.16675 0 6.99103 0 9.23348V48.5C0 50.7425 1.82428 52.5667 4.06686 52.5667H23.6382L22.8466 58.8998H19.5667C19.0326 58.8998 18.5999 59.3326 18.5999 59.8666C18.5999 60.4005 19.0326 60.8334 19.5667 60.8334H46.4333C46.9674 60.8334 47.4001 60.4005 47.4001 59.8666C47.4001 59.3326 46.9674 58.8998 46.4333 58.8998H43.1536L42.3618 52.5667H61.9331C64.1756 52.5667 66 50.7425 66 48.5V9.23348C66 6.99103 64.1757 5.16675 61.9331 5.16675ZM24.7952 58.8998L25.587 52.5667H29.1452L29.4943 53.9628C29.8972 55.5745 31.3389 56.7 33.0001 56.7C34.6613 56.7 36.103 55.5745 36.506 53.9628L36.8551 52.5667H40.4133L41.2048 58.8998H24.7952ZM31.1382 52.5667H34.8617L34.6299 53.4938C34.4426 54.2432 33.7724 54.7664 32.9999 54.7664C32.2273 54.7664 31.5573 54.243 31.3699 53.4938L31.1382 52.5667ZM64.0664 48.5C64.0664 49.6763 63.1094 50.6331 61.9331 50.6331H4.06686C2.89059 50.6331 1.93359 49.6763 1.93359 48.5V9.23348C1.93359 8.05721 2.89059 7.10034 4.06686 7.10034H61.9331C63.1094 7.10034 64.0664 8.05721 64.0664 9.23348V48.5Z" fill="#292929"/>
<path d="M54.6999 9.30005H5.1001C4.56604 9.30005 4.1333 9.73279 4.1333 10.2668V47.4666C4.1333 48.0007 4.56604 48.4334 5.1001 48.4334H7.16685C7.70091 48.4334 8.13365 48.0007 8.13365 47.4666C8.13378 46.9327 7.70091 46.4998 7.16698 46.4998H6.06702V11.2336H54.6999C55.2339 11.2336 55.6667 10.8008 55.6667 10.2668C55.6667 9.73279 55.2339 9.30005 54.6999 9.30005Z" fill="#292929"/>
<path d="M60.8999 9.30005H58.8332C58.2991 9.30005 57.8664 9.73279 57.8664 10.2668C57.8664 10.8008 58.2991 11.2336 58.8332 11.2336H59.9331V46.4998H11.3002C10.7661 46.4998 10.3334 46.9327 10.3334 47.4666C10.3334 48.0007 10.7661 48.4334 11.3002 48.4334H60.8998C61.4339 48.4334 61.8666 48.0007 61.8666 47.4666V10.2668C61.8667 9.73279 61.4339 9.30005 60.8999 9.30005Z" fill="#292929"/>
<path d="M46.1613 20.0041C45.9875 19.782 45.7254 19.6469 45.4439 19.6342L22.7108 18.6007C22.693 18.6 22.6756 18.5996 22.6577 18.5998C22.5231 18.1581 22.2387 17.775 21.8538 17.5182L19.0698 15.6622C18.6256 15.3661 18.0253 15.4861 17.7292 15.9304C17.4331 16.3748 17.5531 16.975 17.9973 17.2711L20.7812 19.1268C20.7943 19.1356 20.804 19.1488 20.8084 19.164L24.3545 31.5753C24.4651 31.9622 24.6471 32.31 24.8808 32.6104L23.5834 35.2053C23.271 35.8298 23.3038 36.5572 23.6709 37.1512C23.804 37.3666 23.9729 37.5501 24.1669 37.697C23.913 38.1403 23.7669 38.6531 23.7669 39.1997C23.7669 40.8724 25.1278 42.2331 26.8003 42.2331C28.4729 42.2331 29.8338 40.8722 29.8338 39.1997C29.8338 38.8118 29.7598 38.4411 29.6265 38.0999H38.4407C38.3074 38.4411 38.2334 38.8118 38.2334 39.1997C38.2334 40.8724 39.5943 42.2331 41.2668 42.2331C42.9394 42.2331 44.3003 40.8722 44.3003 39.1997C44.3003 38.7145 44.1851 38.256 43.9817 37.8489C44.1769 37.672 44.3003 37.4173 44.3003 37.1331C44.3003 36.5991 43.8675 36.1663 43.3335 36.1663H25.3719C25.3581 36.1663 25.3348 36.1663 25.3153 36.1347C25.2959 36.1032 25.3063 36.0825 25.3125 36.07L26.5077 33.6797C26.751 33.7422 27.0044 33.776 27.2638 33.776C27.3833 33.776 27.5039 33.7689 27.6253 33.7547L41.2102 32.1565C42.9648 31.95 44.3764 30.6475 44.7229 28.915L46.3479 20.7896C46.4032 20.513 46.335 20.2262 46.1613 20.0041ZM41.2666 38.1001C41.8731 38.1001 42.3664 38.5936 42.3664 39.1999C42.3664 39.8064 41.8731 40.2998 41.2666 40.2998C40.6601 40.2998 40.1668 39.8064 40.1668 39.1999C40.1668 38.5934 40.6601 38.1001 41.2666 38.1001ZM26.8001 38.1001C27.4066 38.1001 27.8999 38.5934 27.8999 39.1999C27.8999 39.8064 27.4066 40.2998 26.8001 40.2998C26.1936 40.2998 25.7002 39.8064 25.7002 39.1999C25.7002 38.5934 26.1936 38.1001 26.8001 38.1001ZM24.4292 24.7998L23.2176 20.5595L27.0829 20.7352L27.7531 24.7998H24.4292ZM27.3995 31.8344C26.8604 31.8978 26.3622 31.5653 26.2134 31.0442L24.9817 26.7334H28.0719L28.8841 31.6597L27.3995 31.8344ZM33.0666 31.1677L30.8066 31.4336L30.0318 26.7336H33.0666V31.1677ZM33.0666 24.7998H29.7128L29.0575 20.825L33.0666 21.0073V24.7998ZM37.9627 30.5916L35.0002 30.9401V26.7334H38.3119L37.9627 30.5916ZM38.487 24.7998H35.0002V21.0951L38.8067 21.2681L38.487 24.7998ZM42.8267 28.536C42.645 29.4446 41.9045 30.1279 40.9843 30.2362L39.9251 30.3608L40.2534 26.7336H43.1872L42.8267 28.536ZM43.574 24.7998H40.4286L40.7403 21.356L44.231 21.5147L43.574 24.7998Z" fill="#292929"/>
</svg>
