<?xml version="1.0" encoding="utf-8"?>
<!-- Generator: Adobe Illustrator 18.0.0, SVG Export Plug-In . 
SVG Version: 6.00 Build 0)  -->
<!DOCTYPE svg PUBLIC "-//W3C//DTD SVG 1.1//EN" 
"http://www.w3.org/Graphics/SVG/1.1/DTD/svg11.dtd">
<svg width="66" height="66" viewBox="0 0 66 66" fill="none" xmlns="http://www.w3.org/2000/svg">
<path d="M59.2632 35H57.3684V36.871H59.2632C60.8301 36.871 62.1053 38.1301 62.1053 39.6774V52.7742H29.8947V39.6774C29.8947 38.1301 31.1699 36.871 32.7368 36.871H34.6316V35H32.7368C30.1249 35 28 37.0983 28 39.6774V54.6452C28 57.2243 30.1249 59.3226 32.7368 59.3226H41.7586L40.6218 62.129H37.4737V64H41.2632H50.7368H54.5263V62.129H51.3782L50.2414 59.3226H59.2632C61.8751 59.3226 64 57.2243 64 54.6452V39.6774C64 37.0983 61.8751 35 59.2632 35ZM49.3376 62.129H42.6624L43.7993 59.3226H48.2007L49.3376 62.129ZM59.2632 57.4516H48.8421H43.1579H32.7368C31.1699 57.4516 29.8947 56.1925 29.8947 54.6452H62.1053C62.1053 56.1925 60.8301 57.4516 59.2632 57.4516Z" fill="#292929"/>
<path d="M7.94077 36H8.88155H12.6446H16.4077V34.129H13.2816L12.1526 31.3226H21.1116C23.7053 31.3226 25.8155 29.2243 25.8155 26.6452V15.4194H41.8087C43.3647 15.4194 44.631 16.6785 44.631 18.2258V21.5805L42.4738 19.4354L41.1435 20.7582L44.9066 24.5001C45.0901 24.6825 45.3309 24.7742 45.5718 24.7742C45.8126 24.7742 46.0534 24.6825 46.2369 24.5001L50 20.7582L48.6697 19.4354L46.5125 21.5805V18.2258C46.5125 15.6467 44.4024 13.5484 41.8087 13.5484H25.8155V11.6774C25.8155 9.09829 23.7053 7 21.1116 7H7.94077C7.42147 7 7 7.4191 7 7.93548V30.3871V35.0645C7 35.5809 7.42147 36 7.94077 36ZM11.2551 34.129H8.88155V31.3226H10.1262L11.2551 34.129ZM21.1116 29.4516H10.7631H8.88155V26.6452H23.9339C23.9339 28.1925 22.6677 29.4516 21.1116 29.4516ZM21.1116 8.87097C22.6677 8.87097 23.9339 10.1301 23.9339 11.6774V13.5484H20.1708V15.4194H23.9339V24.7742H8.88155V8.87097H21.1116Z" fill="#292929"/>
<path d="M14.6667 15.3333H18V13.6667H14.6667V12H13V17H14.6667V15.3333Z" fill="#292929"/>
<path d="M35.9545 34.4444C35.9545 36.5194 36.6428 38.4923 37.876 40.1111H35V42H40.1059H50.8941H56V40.1111H53.124C54.3572 38.4923 55.0455 36.5194 55.0455 34.4444C55.0455 29.2368 50.7634 25 45.5 25C40.2366 25 35.9545 29.2368 35.9545 34.4444ZM45.5 26.8889C49.7105 26.8889 53.1364 30.2785 53.1364 34.4444C53.1364 36.6261 52.1961 38.6737 50.5457 40.1111H46.4545V39.9373C47.5628 39.5463 48.3636 38.5074 48.3636 37.2778V36.3333C48.3636 34.7712 47.0788 33.5 45.5 33.5C44.974 33.5 44.5455 33.0759 44.5455 32.5556V31.6111C44.5455 31.0907 44.974 30.6667 45.5 30.6667C46.026 30.6667 46.4545 31.0907 46.4545 31.6111H48.3636C48.3636 30.3814 47.5628 29.3426 46.4545 28.9516V27.8333H44.5455V28.9516C43.4372 29.3426 42.6364 30.3814 42.6364 31.6111V32.5556C42.6364 34.1177 43.9212 35.3889 45.5 35.3889C46.026 35.3889 46.4545 35.8129 46.4545 36.3333V37.2778C46.4545 37.7982 46.026 38.2222 45.5 38.2222C44.974 38.2222 44.5455 37.7982 44.5455 37.2778H42.6364C42.6364 38.5074 43.4372 39.5463 44.5455 39.9373V40.1111H40.4543C38.8039 38.6737 37.8636 36.6261 37.8636 34.4444C37.8636 30.2785 41.2895 26.8889 45.5 26.8889Z" fill="#292929"/>
<path d="M22 21H20V23H22V21Z" fill="#292929"/>
<path d="M18 21H16V23H18V21Z" fill="#292929"/>
<path d="M15 21H13V23H15V21Z" fill="#292929"/>
</svg>
