<?xml version="1.0" encoding="utf-8"?>
<!-- Generator: Adobe Illustrator 18.0.0, SVG Export Plug-In . 
SVG Version: 6.00 Build 0)  -->
<!DOCTYPE svg PUBLIC "-//W3C//DTD SVG 1.1//EN" 
"http://www.w3.org/Graphics/SVG/1.1/DTD/svg11.dtd">
<svg width="66" height="66" viewBox="0 0 66 66" fill="none" xmlns="http://www.w3.org/2000/svg">
<path d="M33.5612 3.89697C22.3766 3.89697 13.2773 12.9963 13.2773 24.181C13.2773 31.6347 17.288 38.3868 23.79 41.9602V47.1479H23.7857V51.2931H23.7799V57.5807H29.6412C29.7627 59.6348 31.4716 61.2688 33.5554 61.2688C35.6391 61.2688 37.348 59.6348 37.4693 57.5807H43.3269V53.4355H43.333V47.1479H43.3323V41.9602C49.8344 38.3868 53.845 31.6346 53.845 24.181C53.845 12.9963 44.7457 3.89697 33.5612 3.89697ZM25.9281 49.2903H41.1906V51.2931H25.9281V49.2903ZM33.5554 59.1265C32.556 59.1265 31.9048 58.3625 31.7945 57.5807H35.3174C35.2023 58.4516 34.4569 59.1265 33.5554 59.1265ZM41.1846 55.4383H25.9222V53.4355H41.1846V55.4383ZM41.7755 40.3604L41.19 40.6583V47.0891H34.6285V31.2591L40.9827 24.9046C41.401 24.4864 41.401 23.8082 40.9825 23.3898C40.5644 22.9716 39.8861 22.9715 39.4677 23.3899L33.5573 29.3006L27.647 23.3899C27.2287 22.9716 26.5504 22.9715 26.1321 23.3898C25.7136 23.8082 25.7136 24.4864 26.1319 24.9047L32.4861 31.2591V47.0891H25.9324V40.6583L25.3469 40.3604C19.2236 37.2451 15.4197 31.0455 15.4197 24.181C15.4197 14.1777 23.558 6.03943 33.5612 6.03943C43.5644 6.03943 51.7026 14.1777 51.7026 24.181C51.7026 31.0455 47.8988 37.2451 41.7755 40.3604Z" fill="#292929"/>
<path d="M39.2147 10.3916C38.6231 10.3916 38.1436 10.8711 38.1436 11.4628C38.1436 12.0545 38.6231 12.534 39.2147 12.534C40.8997 12.534 44.849 14.5582 44.849 18.4835C44.849 19.0752 45.3285 19.5547 45.9201 19.5547C46.5118 19.5547 46.9913 19.0752 46.9913 18.4835C46.9913 13.1707 41.9287 10.3916 39.2147 10.3916Z" fill="#292929"/>
<path d="M10.1139 26.2316C10.1139 25.6399 9.63437 25.1604 9.04274 25.1604H4.18592C3.59429 25.1604 3.11475 25.6399 3.11475 26.2316C3.11475 26.8232 3.59429 27.3028 4.18592 27.3028H9.04274C9.63437 27.3028 10.1139 26.8232 10.1139 26.2316Z" fill="#292929"/>
<path d="M10.4813 12.2203C10.6905 12.4295 10.9646 12.5341 11.2388 12.5341C11.5129 12.5341 11.7871 12.4295 11.9962 12.2204C12.4146 11.802 12.4146 11.1238 11.9963 10.7056L8.56235 7.27144C8.14424 6.8533 7.46589 6.85316 7.04747 7.2713C6.62906 7.68972 6.62906 8.36791 7.04734 8.78619L10.4813 12.2203Z" fill="#292929"/>
<path d="M10.4818 40.2427L7.04747 43.6769C6.62906 44.0953 6.62906 44.7735 7.04734 45.1919C7.25656 45.4012 7.53062 45.5058 7.80484 45.5058C8.0789 45.5058 8.35313 45.4012 8.56218 45.1919L11.9965 41.7578C12.4149 41.3394 12.4149 40.6612 11.9966 40.2431C11.5784 39.8246 10.9 39.8246 10.4818 40.2427Z" fill="#292929"/>
<path d="M62.9289 25.1604H58.0722C57.4806 25.1604 57.001 25.6399 57.001 26.2316C57.001 26.8232 57.4806 27.3028 58.0722 27.3028H62.9289C63.5205 27.3028 64 26.8232 64 26.2316C64 25.6399 63.5205 25.1604 62.9289 25.1604Z" fill="#292929"/>
<path d="M55.8757 12.5339C56.1498 12.5339 56.424 12.4293 56.6332 12.2203L60.0673 8.78614C60.4856 8.36773 60.4856 7.68954 60.0673 7.27113C59.6489 6.85298 58.9707 6.85298 58.5523 7.27113L55.1182 10.7053C54.6999 11.1237 54.6999 11.8019 55.1182 12.2203C55.3274 12.4293 55.6016 12.5339 55.8757 12.5339Z" fill="#292929"/>
<path d="M56.633 40.2427C56.2149 39.8246 55.5366 39.8246 55.1181 40.2431C54.6999 40.6612 54.6999 41.3394 55.1183 41.7578L58.5526 45.1919C58.7617 45.4012 59.0359 45.5058 59.3099 45.5058C59.584 45.5058 59.8583 45.4012 60.0675 45.1919C60.4857 44.7735 60.4857 44.0953 60.0673 43.6769L56.633 40.2427Z" fill="#292929"/>
</svg>
